<svg width="165" height="203" viewBox="0 0 165 203" fill="none" xmlns="http://www.w3.org/2000/svg">
<path d="M88.4233 56.6364V85.0455H4.26136V56.6364H88.4233ZM23.5263 193V46.782C23.5263 36.898 25.4498 28.7007 29.2969 22.1903C33.2031 15.6799 38.5298 10.7971 45.277 7.54189C52.0241 4.28668 59.6887 2.65908 68.2706 2.65908C74.0708 2.65908 79.3679 3.10297 84.1619 3.99077C89.0152 4.87855 92.6255 5.67755 94.9929 6.38778L88.2457 34.7969C86.7661 34.3234 84.9313 33.8795 82.7415 33.4652C80.6108 33.0509 78.4209 32.8438 76.1719 32.8438C70.6084 32.8438 66.7318 34.1458 64.5419 36.75C62.352 39.295 61.2571 42.8757 61.2571 47.4922V193H23.5263Z" fill="white"/>
<path d="M111.528 193V56.6364H149.347V193H111.528ZM130.526 39.0582C124.904 39.0582 120.08 37.1939 116.056 33.4652C112.09 29.6773 110.107 25.1496 110.107 19.8821C110.107 14.6738 112.09 10.2053 116.056 6.47656C120.08 2.68868 124.904 0.794735 130.526 0.794735C136.149 0.794735 140.943 2.68868 144.909 6.47656C148.933 10.2053 150.945 14.6738 150.945 19.8821C150.945 25.1496 148.933 29.6773 144.909 33.4652C140.943 37.1939 136.149 39.0582 130.526 39.0582Z" fill="#00BC7D"/>
</svg>
